<svg width="24" height="20" viewBox="0 0 24 20" fill="none" xmlns="http://www.w3.org/2000/svg">
<path d="M12.4891 0.301514L1.23288 7.44564L12.4891 14.5898L23.7453 7.44564L12.4891 0.301514Z" fill="white"/>
<path fill-rule="evenodd" clip-rule="evenodd" d="M12.3688 0.0357856C12.444 -0.0119285 12.5343 -0.0119285 12.6095 0.0357856L23.8657 7.17991C23.9484 7.2324 24 7.33445 24 7.44551C24 7.55656 23.9484 7.65862 23.8657 7.7111L12.6095 14.8552C12.5343 14.9029 12.444 14.9029 12.3688 14.8552L1.11258 7.7111C1.02988 7.65862 0.978271 7.55656 0.978271 7.44551C0.978271 7.33445 1.02988 7.2324 1.11258 7.17991L12.3688 0.0357856ZM1.77178 7.44551L12.4891 14.2476L23.2065 7.44551L12.4891 0.643372L1.77178 7.44551Z" fill="white"/>
<path fill-rule="evenodd" clip-rule="evenodd" d="M4.27632 11C4.42893 11 4.55264 11.1282 4.55264 11.2865V13.9727L12.5 18.3912L20.4474 13.9727V11.2865C20.4474 11.1282 20.5711 11 20.7237 11C20.8763 11 21 11.1282 21 11.2865V14.1441C21 14.2496 20.944 14.3466 20.8543 14.3965L12.6354 18.966C12.5952 18.9883 12.5504 19 12.5048 19H12.4952C12.4496 19 12.4048 18.9883 12.3646 18.966L4.14572 14.3965C4.05599 14.3466 4 14.2496 4 14.1441V11.2865C4 11.1282 4.12371 11 4.27632 11Z" fill="white"/>
<path d="M2.46624 19.6712H0V11.2689L1.23294 9.05786L2.46624 11.2689V19.6712Z" fill="white"/>
<path fill-rule="evenodd" clip-rule="evenodd" d="M22.5036 9.03198C22.6442 9.03198 22.7582 9.16692 22.7582 9.33336V18.2016C22.7582 18.368 22.6442 18.5029 22.5036 18.5029C22.3629 18.5029 22.2489 18.368 22.2489 18.2016V9.33336C22.2489 9.16692 22.3629 9.03198 22.5036 9.03198Z" fill="white"/>
<path fill-rule="evenodd" clip-rule="evenodd" d="M22.3331 17.9998C22.4272 17.8884 22.5798 17.8884 22.6739 17.9998L23.9157 19.4694C23.9846 19.551 24.0052 19.6736 23.9679 19.7802C23.9306 19.8867 23.8428 19.9562 23.7453 19.9562H21.2617C21.1642 19.9562 21.0763 19.8867 21.039 19.7802C21.0017 19.6736 21.0224 19.551 21.0913 19.4694L22.3331 17.9998Z" fill="white"/>
</svg>
