<?xml version="1.0" encoding="utf-8"?>
<!-- Generator: Adobe Illustrator 16.0.0, SVG Export Plug-In . SVG Version: 6.00 Build 0)  -->
<!DOCTYPE svg PUBLIC "-//W3C//DTD SVG 1.1//EN" "http://www.w3.org/Graphics/SVG/1.1/DTD/svg11.dtd">
<svg version="1.1" id="Layer_1" xmlns="http://www.w3.org/2000/svg" xmlns:xlink="http://www.w3.org/1999/xlink" x="0px" y="0px"
	 width="1024px" height="1024px" viewBox="0 0 1024 1024" enable-background="new 0 0 1024 1024" xml:space="preserve">
<rect fill="none" width="1024" height="1024"/>
<g>
	<path fill="#050505" d="M945.87,0H239.102C195.257,0,159,33.537,159,75.234V185H88.914C36.906,185,0,212.089,0,251.669v688.939
		C0,982.223,45.154,1024,88.914,1024h706.77c41.617,0,70.316-33.933,70.316-83.392V839h79.87c43.845,0,78.13-33.131,78.13-74.826
		V75.234C1024,33.537,989.715,0,945.87,0z M779,941H92.848c-1.347-1-3.848-2.837-4.848-4.133V269h71v486.771v8.403
		C159,805.869,195.257,839,239.102,839h8.835H779V941z M938,756h-71.642H251.87c-1.346-1-2.87-2.675-4.87-3.971V184.456V83h691V756z
		"/>
</g>
</svg>
