<svg xmlns="http://www.w3.org/2000/svg" enable-background="new 0 0 128 128" viewBox="0 0 128 128" id="schedule-event"><path fill="#353534" d="M87.2 79.1c-.3-.9-1.1-1.6-2-1.7l-13.1-1.9-5.8-11.8c-.4-.9-1.3-1.4-2.2-1.4-1 0-1.8.5-2.2 1.4l-5.8 11.8-13.1 1.9c-1 .1-1.7.8-2 1.7-.3.9-.1 1.9.6 2.6l9.5 9.2-2.2 13c-.2 1 .2 1.9 1 2.4.8.6 1.8.6 2.6.2l11.7-6.1 11.7 6.1c.9.5 1.8.4 2.6-.2.8-.6 1.2-1.5 1-2.4l-2.2-13 9.5-9.2C87.2 81 87.5 80 87.2 79.1L87.2 79.1zM120.1 18.3h-19.4v-9c0-3.3-2.7-6-6-6-3.3 0-6 2.7-6 6v9H39.2v-9c0-3.3-2.7-6-6-6-3.3 0-6 2.7-6 6v9H7.9c-3.1 0-5.7 2.5-5.7 5.7V37h123.5V23.9C125.7 20.8 123.2 18.3 120.1 18.3z"></path><path fill="#353534" d="M2.3,121.1c0,3.1,2.5,5.7,5.7,5.7h112.2c3.1,0,5.7-2.5,5.7-5.7V42.4H2.3V121.1z M9.6,49.7h108.7v69.6H9.6
			V49.7z"></path></svg>