<?xml version="1.0" standalone="no"?>
<!DOCTYPE svg PUBLIC "-//W3C//DTD SVG 20010904//EN"
 "http://www.w3.org/TR/2001/REC-SVG-20010904/DTD/svg10.dtd">
<svg version="1.0" xmlns="http://www.w3.org/2000/svg"
 width="512.000000pt" height="512.000000pt" viewBox="0 0 512.000000 512.000000"
 preserveAspectRatio="xMidYMid meet">

<g transform="translate(0.000000,512.000000) scale(0.100000,-0.100000)"
fill="#000000" stroke="none">
<path d="M2438 4729 c-352 -27 -564 -173 -674 -465 -58 -156 -92 -481 -72
-707 38 -449 313 -824 679 -924 88 -25 290 -25 378 0 366 100 641 475 679 924
20 226 -14 551 -72 707 -106 282 -323 438 -641 461 -44 3 -100 7 -125 9 -25 2
-93 -1 -152 -5z"/>
<path d="M1225 4519 c-291 -27 -483 -182 -549 -444 -38 -154 -53 -477 -27
-600 58 -276 215 -505 415 -607 169 -86 371 -89 542 -8 l62 30 -53 103 c-62
118 -104 238 -137 387 -19 92 -22 134 -22 330 0 310 31 503 110 685 19 44 36
84 37 90 6 26 -233 47 -378 34z"/>
<path d="M3665 4519 c-100 -10 -151 -22 -148 -35 1 -5 18 -45 37 -89 79 -182
110 -375 110 -685 0 -196 -3 -238 -22 -330 -33 -149 -75 -269 -137 -387 l-53
-103 62 -30 c171 -81 373 -78 542 8 200 102 357 331 415 607 16 74 16 338 0
455 -43 307 -169 481 -401 554 -60 19 -285 51 -310 45 -3 -1 -45 -6 -95 -10z"/>
<path d="M820 2704 c-401 -92 -595 -206 -697 -408 -72 -142 -99 -293 -115
-642 l-12 -260 28 -37 c57 -75 225 -180 366 -229 80 -28 273 -78 279 -73 2 3
8 90 13 193 9 220 22 349 49 491 74 385 245 629 558 799 l73 40 -63 7 c-136
14 -242 53 -312 115 -19 16 -41 30 -48 29 -8 0 -61 -11 -119 -25z"/>
<path d="M4141 2706 c-54 -58 -184 -107 -320 -121 l-63 -7 73 -40 c313 -170
484 -414 558 -799 27 -142 40 -271 49 -491 5 -103 11 -190 13 -193 6 -5 199
45 279 73 141 49 309 154 366 229 l28 37 -12 260 c-21 460 -71 635 -222 786
-113 112 -248 177 -491 239 -222 56 -230 57 -258 27z"/>
<path d="M1950 2501 c-648 -138 -892 -333 -986 -791 -33 -164 -43 -278 -51
-582 l-6 -267 64 -64 c292 -291 945 -438 1812 -405 650 24 1160 177 1376 414
l51 56 0 153 c0 333 -31 639 -81 809 -81 272 -245 443 -537 557 -107 41 -405
122 -499 135 -50 6 -54 5 -95 -31 -56 -47 -165 -100 -253 -121 -93 -22 -277
-22 -370 0 -87 21 -197 73 -252 120 -47 41 -55 42 -173 17z"/>
</g>
</svg>
