<svg width="49" height="49" viewBox="0 0 49 49" fill="none" xmlns="http://www.w3.org/2000/svg">
<circle cx="24.5" cy="24.5" r="24.5" fill="#227FC0"/>
<path d="M24.9264 29.0458C24.835 29.0673 24.7624 29.2796 24.7624 29.5295C24.7624 29.7794 24.8486 29.9864 24.9669 29.9971H24.9992L24.999 29.9973C25.969 30.0299 26.926 29.7689 27.7448 29.2484C28.5638 28.728 29.206 27.9726 29.5876 27.0809C30.127 25.826 30.1377 24.4067 29.6172 23.1439C29.0968 21.881 28.0891 20.8809 26.8217 20.3694C25.5544 19.8579 24.1345 19.8784 22.8823 20.4258C21.9943 20.8128 21.2442 21.4591 20.7305 22.2799C20.2168 23.1007 19.9637 24.0575 20.0042 25.0247C20.0042 25.143 20.2087 25.2317 20.4588 25.2291C20.7089 25.2265 20.916 25.1539 20.9295 25.0652V25.0382C21.0415 24.3443 21.344 23.6951 21.8033 23.1628C22.2624 22.6303 22.8603 22.2357 23.5305 22.0225C24.3607 21.7583 25.2594 21.8103 26.0536 22.1682C26.8479 22.5263 27.4817 23.1651 27.8331 23.9617C28.1847 24.7583 28.229 25.6567 27.9577 26.4843C27.7382 27.1492 27.3389 27.7405 26.8039 28.1927C26.269 28.6448 25.6191 28.94 24.9264 29.0458Z" fill="white"/>
<path d="M36.5831 31.7306C36.704 31.4118 36.7776 31.0788 36.8017 30.7412C36.8293 30.389 36.821 30.1637 36.8322 29.8711L36.9042 26.5307L36.965 23.2005L36.9926 21.5354V20.7041C36.9926 20.4218 37.0092 20.1862 36.9926 19.7899H36.9928C36.9245 19.0731 36.6519 18.3865 36.2036 17.8016C35.7553 17.2169 35.1476 16.7552 34.4437 16.465C33.9095 16.2491 33.3346 16.1355 32.7527 16.131H31.07L30.3918 15.1571L29.902 14.4501C29.6838 14.1207 29.4024 13.8317 29.0716 13.5983C28.7249 13.3559 28.3295 13.1815 27.9092 13.0854C27.6976 13.0378 27.4818 13.009 27.2644 13H22.7335C22.5171 13.0078 22.3019 13.0365 22.0916 13.0854C21.67 13.1832 21.2736 13.3593 20.9264 13.6035C20.597 13.8383 20.3157 14.127 20.096 14.4554L19.6089 15.1571L18.9143 16.1232H17.3173C17.1706 16.1232 16.9575 16.1362 16.7805 16.1517V16.1516C16.4113 16.1949 16.0496 16.282 15.7038 16.4106C14.2985 16.9301 13.2912 18.106 13.055 19.5025C12.9985 20.0836 12.9853 20.6676 13.0164 21.2505L13.0413 22.8587L13.1021 26.0749L13.1713 29.2911L13.1906 30.0938V30.4952C13.1906 30.648 13.2045 30.8189 13.2294 30.9767L13.2296 30.9769C13.3276 31.6234 13.6043 32.2348 14.0321 32.7507C14.4529 33.2614 15.0093 33.6604 15.6456 33.9082C16.2605 34.1369 16.9233 34.2308 17.5829 34.1828L20.9705 34.0896C20.3186 34.8027 19.7237 35.5601 19.1909 36.3554C19.1687 36.3995 19.2932 36.5652 19.4678 36.736C19.6421 36.9069 19.8276 37.0261 19.8745 36.9951C21.1933 36.2379 22.4136 35.3401 23.5113 34.32C23.7032 34.14 23.8112 33.8959 23.8112 33.6416C23.8112 33.3871 23.7032 33.1432 23.5113 32.9631C22.4104 31.9335 21.1854 31.0271 19.8608 30.2621C19.822 30.2363 19.6477 30.3528 19.4651 30.5211C19.2824 30.6895 19.1606 30.8578 19.1882 30.894C19.7242 31.6891 20.3219 32.4465 20.9761 33.1598H20.9207L17.5027 33.0744C16.5455 33.1192 15.6329 32.6918 15.0976 31.948C14.8497 31.5946 14.701 31.1884 14.6659 30.7672V30.0318L14.6852 29.2316L14.7628 26.0333L14.8209 22.8299L14.8458 21.227V21.2272C14.8352 20.744 14.8555 20.2606 14.9066 19.7796C15.0644 19.0137 15.6403 18.3817 16.4233 18.1145C16.8536 17.9813 17.3097 17.9364 17.7602 17.9824L19.4678 18.0057C19.7995 18.0075 20.1107 17.8553 20.2982 17.5991L21.2946 16.1931L21.7899 15.5016C21.8801 15.354 22.0015 15.2254 22.1469 15.1235C22.276 15.0343 22.4228 14.97 22.5788 14.9344C22.6564 14.9146 22.7363 14.9025 22.8168 14.8983H27.1841C27.2633 14.9023 27.342 14.9126 27.4193 14.9294C27.5754 14.9644 27.7222 15.0287 27.8511 15.1183C27.9955 15.2204 28.116 15.3492 28.2054 15.4964L28.7035 16.1931L29.7081 17.5783C29.8892 17.8439 30.202 18.0048 30.5385 18.0057H32.7527C32.8581 18.0052 32.9635 18.0113 33.0681 18.0238C33.2753 18.0494 33.4782 18.0998 33.6714 18.1741C34.062 18.3292 34.4012 18.5789 34.6541 18.8975C34.9072 19.2162 35.0647 19.5921 35.1107 19.9868L35.2435 26.5772L35.3099 29.9177C35.3238 30.5237 35.3597 30.9224 35.1964 31.3393V31.3395C35.0503 31.76 34.7865 32.1364 34.4327 32.4296C34.0699 32.7249 33.6294 32.9243 33.1568 33.007C32.5967 33.0596 32.0341 33.0854 31.4712 33.0847L27.901 33.1832C27.5358 33.1832 27.2479 33.3878 27.2479 33.6286C27.2479 33.8694 27.5247 34.0663 27.901 34.0766H28.0033L31.5598 34.175C32.1886 34.2121 32.8193 34.2068 33.4473 34.1595C34.1537 34.0562 34.8167 33.7751 35.3654 33.3463C35.9177 32.9187 36.3382 32.3609 36.5832 31.7305L36.5831 31.7306Z" fill="white"/>
</svg>
