<svg width="49" height="49" viewBox="0 0 49 49" fill="none" xmlns="http://www.w3.org/2000/svg">
<circle cx="24.5" cy="24.5" r="24.5" fill="#227FC0"/>
<path d="M19.875 15.2074C16.8199 15.4996 15.0797 16.8617 14.4437 19.457C14.1816 20.5398 14.1816 20.5098 14.1816 25C14.1816 28.7426 14.1902 29.1465 14.259 29.5977C14.7531 32.7645 16.2699 34.2684 19.4238 34.741C19.8922 34.8098 20.3176 34.8184 24.0215 34.8184C28.4859 34.8184 28.4602 34.8184 29.543 34.5562C31.6914 34.032 33.0105 32.7258 33.5391 30.5988C33.8098 29.5117 33.8098 29.4816 33.827 26.0742L33.8441 22.959L33.7453 22.8086C33.6035 22.5937 33.2941 22.4477 33.0621 22.4863C32.8344 22.525 32.568 22.7613 32.5078 22.9719C32.4863 23.0621 32.4648 23.5992 32.4648 24.175V25.2191L32.177 24.9871C31.7988 24.6863 31.6527 24.6047 31.2617 24.4629C30.6043 24.2266 29.8137 24.2781 29.1777 24.6004C28.8168 24.7809 28.9328 24.6863 26.6211 26.6715C25.5941 27.5523 24.6789 28.3129 24.5844 28.3602C24.2449 28.532 23.7035 28.532 23.3641 28.3516C23.2738 28.3086 23.0805 28.1625 22.9258 28.0336C22.0922 27.3117 20.9535 27.127 19.991 27.548C19.8578 27.6082 18.8609 28.2527 17.7824 28.9746C16.3773 29.9199 15.8145 30.2766 15.7887 30.2379C15.75 30.1734 15.6812 29.7824 15.5953 29.168C15.5223 28.6008 15.5094 21.6871 15.5824 20.9352C15.8574 18.125 17.1336 16.8531 19.9566 16.5781C20.2016 16.5566 21.4391 16.5352 22.7066 16.5352H25.0141L25.2031 16.4363C25.4867 16.2945 25.6027 16.1012 25.5812 15.8004C25.5598 15.5211 25.4437 15.332 25.2289 15.2289C25.1 15.1687 24.8164 15.1602 22.6594 15.1645C21.3316 15.1687 20.077 15.1859 19.875 15.2074ZM30.918 25.8035C31.0254 25.8508 31.4164 26.1473 31.7945 26.4652L32.4734 27.041L32.452 28.0937C32.4305 29.168 32.3746 29.6578 32.2113 30.2937C31.7043 32.2488 30.4195 33.2027 27.9961 33.4219C27.6266 33.4562 26.2816 33.4648 23.6348 33.452C19.9223 33.4348 19.7977 33.4348 19.3207 33.3445C18.4613 33.1812 17.8125 32.9406 17.3098 32.6055C16.893 32.3219 16.2871 31.6559 16.3773 31.5785C16.3988 31.557 17.3312 30.934 18.4441 30.1863C20.657 28.7039 20.7387 28.6609 21.2156 28.7125C21.5293 28.7426 21.7785 28.8586 22.0707 29.1121C22.5949 29.559 23.0375 29.7695 23.6348 29.8512C24.2406 29.9371 24.9453 29.7781 25.448 29.4473C25.5684 29.3656 26.5566 28.5363 27.648 27.6039C28.7352 26.6715 29.6676 25.8852 29.7234 25.8551C30.0629 25.6703 30.5699 25.6488 30.918 25.8035Z" fill="white"/>
<path d="M29.7147 15.4225C29.5901 15.4741 29.4269 15.6159 29.3581 15.7405C29.3237 15.7963 29.298 16.1916 29.2851 16.8577L29.2636 17.8889L28.2237 17.9104C27.2612 17.9319 27.1753 17.9362 27.0679 18.0221C26.6468 18.3315 26.6554 18.8987 27.0808 19.1608C27.2397 19.2596 27.2784 19.2639 28.2667 19.2768L29.2851 19.2897V20.2823C29.2851 21.103 29.298 21.2963 29.3538 21.4166C29.4569 21.6315 29.646 21.7475 29.9253 21.769C30.2261 21.7905 30.4194 21.6744 30.5655 21.3909C30.6558 21.2104 30.6601 21.1502 30.6601 20.2436V19.2854H31.6183C32.5249 19.2854 32.5851 19.2811 32.7655 19.1866C33.0491 19.0448 33.1651 18.8514 33.1437 18.5506C33.1222 18.2713 33.0062 18.0823 32.7913 17.9791C32.671 17.9233 32.4776 17.9104 31.6569 17.9104H30.6644L30.6515 16.8877C30.6386 15.9037 30.6343 15.8651 30.5355 15.7061C30.3679 15.4311 30.0026 15.3065 29.7147 15.4225Z" fill="white"/>
<path d="M20.6184 18.8938C19.7376 19.1344 19.0844 19.7833 18.818 20.6813C18.7278 20.9907 18.7149 21.5751 18.7965 21.9059C19.0114 22.7997 19.7462 23.543 20.6485 23.7751C21.0309 23.8739 21.684 23.8481 22.0579 23.7149C22.8614 23.4356 23.5059 22.7266 23.7036 21.9059C23.7809 21.5794 23.7723 20.995 23.6821 20.6813C23.3641 19.5899 22.4618 18.8766 21.336 18.8294C21.0223 18.8165 20.8547 18.8294 20.6184 18.8938ZM21.7485 20.3075C21.9719 20.4235 22.2555 20.7329 22.3286 20.9434C22.4575 21.3215 22.3629 21.7899 22.0922 22.1079C21.7399 22.5247 21.0137 22.5848 20.554 22.2368C20.1844 21.9532 20.0212 21.3946 20.1715 20.9434C20.2704 20.6512 20.6141 20.3333 20.9493 20.2258C21.1254 20.1657 21.5594 20.2129 21.7485 20.3075Z" fill="white"/>
</svg>
