<svg width="188" height="188" viewBox="0 0 188 188" fill="none" xmlns="http://www.w3.org/2000/svg">
<path fill-rule="evenodd" clip-rule="evenodd" d="M86.881 1.46581C81.916 3.60381 4.26704 81.0968 1.79604 86.3798C-0.654961 91.6198 -0.599961 96.2548 1.97704 101.578C4.49304 106.775 10.778 110.88 16.219 110.88H19.881L19.887 140.13C19.89 157.455 20.32 170.92 20.941 173.157C22.306 178.073 27.331 183.725 32.372 186.015C35.773 187.56 39.143 187.839 54.574 187.858C72.253 187.879 72.812 187.817 74.324 185.657C75.63 183.794 75.881 179.505 75.881 159.081V138.86C75.881 136.213 76.9325 133.674 78.804 131.803V131.803C81.714 128.893 81.781 128.88 93.881 128.88C105.981 128.88 106.048 128.893 108.958 131.803V131.803C110.83 133.674 111.881 136.213 111.881 138.86V159.648C111.881 182.522 112.031 184.706 113.71 186.225C115.27 187.637 118.167 187.877 133.46 187.858C148.78 187.839 151.977 187.566 155.486 185.972C160.511 183.69 163.54 180.632 165.979 175.38C167.659 171.764 167.839 168.478 167.859 141.13L167.881 110.88L171.631 110.864C177.086 110.84 182.805 107.188 185.556 101.973C188.262 96.8428 188.5 92.3068 186.337 87.0978C184.235 82.0398 107.023 4.62481 101.315 1.85381C96.506 -0.481194 91.701 -0.610194 86.881 1.46581Z" fill="white"/>
</svg>
