<svg width="20" height="20" viewBox="0 0 20 20" fill="none" xmlns="http://www.w3.org/2000/svg">
<path fill-rule="evenodd" clip-rule="evenodd" d="M10 20C8.68678 20 7.38642 19.7413 6.17317 19.2388C4.95991 18.7362 3.85752 17.9997 2.92893 17.0711C1.05357 15.1957 0 12.6522 0 10C0 4.486 4.486 0 10 0C15.514 0 20 4.486 20 10C20 12.896 18.746 15.647 16.56 17.55L16.361 17.717C14.5692 19.1919 12.3208 19.9988 10 20ZM10 14.5C9.06338 14.497 8.14168 14.7346 7.32313 15.1898C6.50458 15.645 5.81659 16.3028 5.325 17.1C6.63449 17.9638 8.15806 18.447 9.726 18.496L10 18.501C11.6619 18.5029 13.2877 18.016 14.675 17.101C14.1835 16.3036 13.4956 15.6456 12.677 15.1902C11.8585 14.7348 10.9367 14.4972 10 14.5ZM10 13C11.1619 12.9987 12.3058 13.2871 13.3281 13.8392C14.3504 14.3913 15.2189 15.1897 15.855 16.162C16.6943 15.3707 17.3622 14.4155 17.8173 13.3555C18.2725 12.2956 18.5052 11.1535 18.501 10C18.501 5.313 14.687 1.5 10 1.5C5.313 1.5 1.5 5.313 1.5 10C1.5 12.353 2.44 14.541 4.145 16.162C4.78107 15.1897 5.64958 14.3913 6.67191 13.8392C7.69424 13.2871 8.83811 12.9987 10 13ZM10 12C7.795 12 6 10.206 6 8C6 5.794 7.795 4 10 4C12.206 4 14 5.794 14 8C14 10.206 12.206 12 10 12ZM10 5.5C9.3372 5.50079 8.70178 5.76444 8.23311 6.23311C7.76444 6.70178 7.50079 7.3372 7.5 8C7.5 9.379 8.621 10.5 10 10.5C11.379 10.5 12.5 9.379 12.5 8C12.5 6.622 11.379 5.5 10 5.5Z" fill="black"/>
</svg>
