<svg width="19" height="18" viewBox="0 0 19 18" fill="none" xmlns="http://www.w3.org/2000/svg">
<path fill-rule="evenodd" clip-rule="evenodd" d="M15.1083 13.5H7.27426C6.66077 13.5007 6.06471 13.296 5.58115 12.9185C5.09759 12.5409 4.75438 12.0123 4.60626 11.417L2.36326 2.447C2.29582 2.17638 2.13976 1.93612 1.91993 1.7645C1.7001 1.59287 1.42915 1.49976 1.15026 1.5H0.712257C0.520043 1.49007 0.338978 1.40672 0.206437 1.26716C0.0738971 1.12759 0 0.942471 0 0.75C0 0.557529 0.0738971 0.372405 0.206437 0.232842C0.338978 0.0932782 0.520043 0.00992921 0.712257 0H1.15026C2.41526 0 3.51226 0.856 3.81826 2.083L4.04826 3H16.2183C17.0583 3 17.8393 3.375 18.3643 4.029C18.8893 4.683 19.0853 5.528 18.9043 6.347L17.7923 11.347C17.6595 11.9592 17.3204 12.5072 16.8318 12.8991C16.3431 13.2911 15.7347 13.5032 15.1083 13.5ZM4.42226 4.5L6.06226 11.053C6.20026 11.61 6.69826 12 7.27426 12H15.1083C15.6883 12 16.2023 11.588 16.3283 11.021L17.4393 6.021C17.4803 5.83836 17.4797 5.6488 17.4372 5.46647C17.3948 5.28414 17.3118 5.11374 17.1943 4.968C17.0774 4.82164 16.9291 4.70354 16.7603 4.6225C16.5915 4.54147 16.4065 4.49959 16.2193 4.5H4.42226Z" fill="black"/>
<path fill-rule="evenodd" clip-rule="evenodd" d="M7.21228 17.75C6.81446 17.75 6.43292 17.592 6.15162 17.3107C5.87032 17.0294 5.71228 16.6478 5.71228 16.25C5.71228 15.8522 5.87032 15.4706 6.15162 15.1893C6.43292 14.908 6.81446 14.75 7.21228 14.75C7.61011 14.75 7.99164 14.908 8.27294 15.1893C8.55425 15.4706 8.71228 15.8522 8.71228 16.25C8.71228 16.6478 8.55425 17.0294 8.27294 17.3107C7.99164 17.592 7.61011 17.75 7.21228 17.75Z" fill="black"/>
<path fill-rule="evenodd" clip-rule="evenodd" d="M15.2123 17.75C14.8145 17.75 14.4329 17.592 14.1516 17.3107C13.8703 17.0294 13.7123 16.6478 13.7123 16.25C13.7123 15.8522 13.8703 15.4706 14.1516 15.1893C14.4329 14.908 14.8145 14.75 15.2123 14.75C15.6101 14.75 15.9916 14.908 16.2729 15.1893C16.5542 15.4706 16.7123 15.8522 16.7123 16.25C16.7123 16.6478 16.5542 17.0294 16.2729 17.3107C15.9916 17.592 15.6101 17.75 15.2123 17.75Z" fill="black"/>
</svg>
