<svg width="18" height="20" viewBox="0 0 18 20" fill="none" xmlns="http://www.w3.org/2000/svg">
<path fill-rule="evenodd" clip-rule="evenodd" d="M7.22469 1.785C7.09401 1.78478 6.96457 1.81035 6.84379 1.86026C6.72303 1.91016 6.61329 1.98342 6.52087 2.07585C6.42846 2.16825 6.35521 2.27798 6.3053 2.39877C6.25538 2.51957 6.2298 2.64903 6.23002 2.77969L6.23002 2.78101L6.23002 3.77773L11.784 3.77728V2.78101L11.784 2.77969C11.7842 2.64903 11.7587 2.51957 11.7087 2.39877C11.6588 2.27798 11.5856 2.16825 11.4932 2.07585C11.4008 1.98342 11.291 1.91016 11.1703 1.86026C11.0495 1.81035 10.92 1.78478 10.7894 1.785H7.22469ZM5.44388 0.216998L7.08128 0.216999ZM7.08128 0.216999C7.08128 0.216999 5.5 0.5 5 1.5C4.5 2.5 4.65555 3.77701 4.65555 3.77701L1 3.778C0.567012 3.778 0.216003 4.12901 0.216003 4.562C0.216003 4.99499 0.567012 5.346 1 5.346H1.99603V17.002C1.99655 17.68 2.26504 18.3308 2.74292 18.8116C3.22778 19.3102 3.88725 19.568 4.56101 19.568H13.452C14.1275 19.568 14.7856 19.3097 15.2708 18.8119C15.7408 18.3386 16.017 17.6881 16.017 17.003V5.346H17.014C17.447 5.346 17.798 4.99499 17.798 4.562C17.798 4.12901 17.447 3.778 17.014 3.778H15.2724C15.2593 3.77734 15.2461 3.77701 15.2329 3.77701L13.352 3.77716V2.78101C13.3524 2.44439 13.2864 2.11101 13.1579 1.79994C13.0292 1.48845 12.8403 1.20543 12.6019 0.967104C12.3636 0.728796 12.0806 0.53984 11.7691 0.411112C11.4578 0.282482 11.1242 0.216519 10.7874 0.216998M3.56403 5.346L3.56403 17.0014C3.56431 17.2663 3.66956 17.5206 3.85673 17.708L3.86549 17.7168C4.03823 17.8953 4.28477 18 4.56101 18H13.452C13.7288 18 13.975 17.8956 14.1494 17.716L14.1567 17.7084C14.3406 17.524 14.449 17.2681 14.449 17.003V5.346H5.44816L5.44602 5.346L5.44388 5.346H3.56403ZM7.22602 8.22301C7.65901 8.22301 8.01002 8.57402 8.01002 9.00701V14.337C8.01002 14.77 7.65901 15.121 7.22602 15.121C6.79303 15.121 6.44202 14.77 6.44202 14.337V9.00701C6.44202 8.57402 6.79303 8.22301 7.22602 8.22301ZM10.788 8.22301C11.221 8.22301 11.572 8.57402 11.572 9.00701V14.337C11.572 14.77 11.221 15.121 10.788 15.121C10.355 15.121 10.004 14.77 10.004 14.337V9.00701C10.004 8.57402 10.355 8.22301 10.788 8.22301Z" fill="black"/>
</svg>
