<svg width="19" height="20" viewBox="0 0 19 20" fill="none" xmlns="http://www.w3.org/2000/svg">
<path fill-rule="evenodd" clip-rule="evenodd" d="M2.812 9.90503C2.22592 9.90503 1.75 10.3805 1.75 10.967V17.309C1.75 17.8961 2.22648 18.372 2.812 18.372H15.498C16.0835 18.372 16.56 17.8961 16.56 17.309V10.967C16.56 10.3805 16.0841 9.90503 15.498 9.90503H2.812ZM0.25 10.967C0.25 9.55147 1.39808 8.40503 2.812 8.40503H15.498C16.9119 8.40503 18.06 9.55147 18.06 10.967V17.309C18.06 18.724 16.9125 19.872 15.498 19.872H2.812C1.39752 19.872 0.25 18.724 0.25 17.309V10.967Z" fill="black"/>
<path fill-rule="evenodd" clip-rule="evenodd" d="M9.155 1.75C8.15247 1.75 7.19102 2.14823 6.48214 2.85711C5.77325 3.56599 5.375 4.5275 5.375 5.53003V9.15503C5.375 9.56924 5.03921 9.90503 4.625 9.90503C4.21079 9.90503 3.875 9.56924 3.875 9.15503V5.53003C3.875 4.1297 4.43128 2.78665 5.42147 1.79645C6.41167 0.806253 7.75467 0.25 9.155 0.25C10.5553 0.25 11.8983 0.806253 12.8885 1.79645C13.8787 2.78665 14.435 4.1297 14.435 5.53003V9.15503C14.435 9.56924 14.0992 9.90503 13.685 9.90503C13.2708 9.90503 12.935 9.56924 12.935 9.15503V5.53003C12.935 4.5275 12.5367 3.56599 11.8279 2.85711C11.119 2.14823 10.1575 1.75 9.155 1.75Z" fill="black"/>
</svg>
