<svg width="17" height="18" viewBox="0 0 17 18" fill="none" xmlns="http://www.w3.org/2000/svg">
<path fill-rule="evenodd" clip-rule="evenodd" d="M13.344 17.896H2.669C1.95944 17.8931 1.27999 17.6089 0.779651 17.1058C0.279316 16.6026 -0.00106201 15.9216 3.02315e-06 15.212V2.683C-0.000796211 1.97343 0.279836 1.29251 0.780358 0.789546C1.28088 0.286587 1.96044 0.00265021 2.67 3.00694e-06H11.35C11.613 -0.000394938 11.8746 0.0387079 12.126 0.116003C12.543 0.244003 12.927 0.476003 13.236 0.786003L15.232 2.793C15.57 3.133 15.812 3.56 15.93 4.026C15.93 4.03 15.932 4.033 15.933 4.037C15.986 4.249 16.013 4.469 16.013 4.691V15.211C16.0143 15.9206 15.7342 16.6017 15.2341 17.105C14.7339 17.6084 14.0536 17.8928 13.344 17.896ZM2.669 1.342C2.31431 1.34359 1.97471 1.48574 1.72465 1.7373C1.47459 1.98886 1.33447 2.3293 1.335 2.684V15.212C1.335 15.952 1.933 16.554 2.669 16.554H13.344C13.6987 16.5524 14.0383 16.4103 14.2884 16.1587C14.5384 15.9071 14.6785 15.5667 14.678 15.212V5.369H13.344C12.6341 5.36636 11.9542 5.08214 11.4537 4.57875C10.9531 4.07536 10.6727 3.39392 10.674 2.684V1.342H2.669ZM12.009 1.518V2.683C12.009 3.423 12.609 4.025 13.344 4.025H14.504C14.4446 3.9211 14.3716 3.82559 14.287 3.741L12.292 1.734C12.2079 1.64928 12.1127 1.57728 12.009 1.518Z" fill="#69037C"/>
<path fill-rule="evenodd" clip-rule="evenodd" d="M5.26803 7.233H10.745C11.029 7.233 11.259 7.608 11.259 8.071C11.259 8.534 11.029 8.91 10.745 8.91H5.26803C4.98403 8.91 4.75403 8.534 4.75403 8.071C4.75403 7.608 4.98403 7.233 5.26803 7.233Z" fill="#69037C"/>
<path fill-rule="evenodd" clip-rule="evenodd" d="M4.19203 10.739H8.66603C8.88854 10.739 9.10195 10.8274 9.25929 10.9847C9.41663 11.1421 9.50503 11.3555 9.50503 11.578C9.50503 11.8005 9.41663 12.0139 9.25929 12.1713C9.10195 12.3286 8.88854 12.417 8.66603 12.417H4.19203C3.96951 12.417 3.75611 12.3286 3.59876 12.1713C3.44142 12.0139 3.35303 11.8005 3.35303 11.578C3.35303 11.3555 3.44142 11.1421 3.59876 10.9847C3.75611 10.8274 3.96951 10.739 4.19203 10.739Z" fill="#69037C"/>
</svg>
