<svg width="17" height="20" viewBox="0 0 17 20" fill="none" xmlns="http://www.w3.org/2000/svg">
<path fill-rule="evenodd" clip-rule="evenodd" d="M1 8.92C1.55228 8.92 2 9.36771 2 9.92V17.056C2 17.4887 2.35128 17.84 2.784 17.84H13.488C13.9207 17.84 14.272 17.4887 14.272 17.056V9.92C14.272 9.36771 14.7197 8.92 15.272 8.92C15.8243 8.92 16.272 9.36771 16.272 9.92V17.056C16.272 18.5933 15.0253 19.84 13.488 19.84H2.784C1.24671 19.84 0 18.5933 0 17.056V9.92C0 9.36771 0.447715 8.92 1 8.92Z" fill="black"/>
<path fill-rule="evenodd" clip-rule="evenodd" d="M8.13599 0C8.4012 0 8.65556 0.105357 8.84309 0.292894L12.4111 3.86089C12.8016 4.25142 12.8016 4.88458 12.4111 5.27511C12.0206 5.66563 11.3874 5.66563 10.9969 5.27511L8.13599 2.41422L5.2751 5.27511C4.88458 5.66563 4.25141 5.66563 3.86089 5.27511C3.47036 4.88458 3.47036 4.25142 3.86089 3.86089L7.42888 0.292894C7.61642 0.105357 7.87077 0 8.13599 0Z" fill="black"/>
<path fill-rule="evenodd" clip-rule="evenodd" d="M8.13599 0C8.68827 0 9.13599 0.447715 9.13599 1V12.596C9.13599 13.1483 8.68827 13.596 8.13599 13.596C7.5837 13.596 7.13599 13.1483 7.13599 12.596V1C7.13599 0.447715 7.5837 0 8.13599 0Z" fill="black"/>
</svg>
